<?xml version="1.0" encoding="utf-8"?>
<!-- Generator: Adobe Illustrator 15.1.0, SVG Export Plug-In  -->
<!DOCTYPE svg PUBLIC "-//W3C//DTD SVG 1.1//EN" "http://www.w3.org/Graphics/SVG/1.1/DTD/svg11.dtd" [
	<!ENTITY ns_flows "http://ns.adobe.com/Flows/1.0/">
]>
<svg version="1.1"
	 xmlns="http://www.w3.org/2000/svg" xmlns:xlink="http://www.w3.org/1999/xlink" xmlns:a="http://ns.adobe.com/AdobeSVGViewerExtensions/3.0/"
	 x="0px" y="0px" width="8px" height="10px" viewBox="0 0 8 10" overflow="visible" enable-background="new 0 0 8 10"
	 xml:space="preserve">
<defs>
</defs>
<path fill="#555555" d="M7.062,1.25c0.26,0,0.482,0.091,0.664,0.273C7.909,1.706,8,1.927,8,2.188v6.875
	c0,0.26-0.091,0.481-0.273,0.664C7.544,9.909,7.323,10,7.062,10H0.938c-0.26,0-0.482-0.091-0.664-0.273C0.091,9.544,0,9.323,0,9.062
	V2.188c0-0.261,0.091-0.482,0.273-0.665C0.456,1.341,0.677,1.25,0.938,1.25H2.75c0-0.339,0.124-0.632,0.371-0.879
	C3.369,0.124,3.662,0,4,0s0.631,0.124,0.879,0.371C5.126,0.618,5.25,0.911,5.25,1.25H7.062z M6.945,9.062
	c0.026,0,0.052-0.013,0.078-0.039c0.026-0.026,0.039-0.052,0.039-0.078V2.305c0-0.026-0.013-0.052-0.039-0.078
	C6.998,2.2,6.972,2.188,6.945,2.188h-1.07V2.89c0,0.065-0.023,0.121-0.068,0.167C5.761,3.102,5.706,3.125,5.641,3.125H2.359
	c-0.065,0-0.121-0.022-0.166-0.068C2.148,3.011,2.125,2.956,2.125,2.89V2.188h-1.07c-0.026,0-0.052,0.013-0.078,0.039
	C0.951,2.252,0.938,2.278,0.938,2.305v6.641c0,0.026,0.013,0.052,0.039,0.078c0.026,0.026,0.052,0.039,0.078,0.039H6.945z M4,0.781
	c-0.13,0-0.241,0.045-0.332,0.137C3.577,1.009,3.531,1.12,3.531,1.25c0,0.13,0.045,0.241,0.137,0.332
	C3.759,1.673,3.87,1.719,4,1.719s0.241-0.046,0.332-0.137C4.423,1.491,4.469,1.38,4.469,1.25c0-0.13-0.045-0.241-0.137-0.332
	C4.241,0.827,4.13,0.781,4,0.781z"/>
<path fill="#555555" d="M5.875,5.156c0,0.138-0.112,0.25-0.25,0.25h-3.25c-0.138,0-0.25-0.112-0.25-0.25v-0.5
	c0-0.138,0.112-0.25,0.25-0.25h3.25c0.138,0,0.25,0.112,0.25,0.25V5.156z"/>
<path fill="#555555" d="M5.875,7.156c0,0.138-0.112,0.25-0.25,0.25h-3.25c-0.138,0-0.25-0.112-0.25-0.25v-0.5
	c0-0.138,0.112-0.25,0.25-0.25h3.25c0.138,0,0.25,0.112,0.25,0.25V7.156z"/>
</svg>
